<svg xmlns="http://www.w3.org/2000/svg" width="232.038" height="185.625" version="1.1" xml:space="preserve">
  <defs/>
  <g fill-opacity="1" fill-rule="nonzero" stroke="none">
    <path fill="#5e9ca8" d="M130.469 75.996c-6.79 0-11.41 5.345-11.41 20.713 0 14.477 3.77 21.062 11.41 21.062 8.547 0 10.915-9.056 10.915-21.062 0-11.06-.723-20.713-10.915-20.713m42.415 50.872c-.811 0-28.716.466-29.644.466-.928 0-1.391-.582-1.391-1.624v-8.271h-.35c-3.362 6.612-7.772 11.286-19.373 11.286-14.733 0-25.055-12.065-25.055-32.016 0-20.534 12.03-32.133 25.717-32.133 10.444 0 16.062 3.198 18.962 10.738h.412V55.031c0-1.505-.116-3.131-.348-3.942-.462-1.973-1.509-2.089-3.362-2.205-1.162 0-5.686-.116-6.728-.116-.813 0-1.278-.233-1.278-1.275v-8.32c0-1.043.35-1.625 1.16-1.625.814 0 28.519-.347 29.446-.347.93 0 1.392.463 1.392 1.508v69.318c0 1.507 0 3.016.232 3.829.466 1.972 1.509 2.088 3.364 2.204 1.16 0 5.686.232 6.729.232.812 0 1.276.23 1.276 1.275v9.794c0 1.044-.346 1.507-1.161 1.507M57.867 140.79h-3.573c-.09 0-.13-.053-.13-.17v-.66c0-.119.04-.143.13-.143.117 0 .427-.012.557-.012.208-.014.327-.039.379-.26.026-.091.039-.26.039-.429v-2.938c0-.325-.079-.752-.3-1.012-.168-.21-.428-.289-.765-.289-.443 0-.911.184-1.197.55-.402.503-.52 1.113-.52 1.712v1.977c0 .17.015.338.04.429.05.221.169.246.376.26.13 0 .429.012.546.012.09 0 .144.024.144.143v.66c0 .117-.04.17-.132.17h-3.56c-.089 0-.128-.053-.128-.17v-.66c0-.119.053-.143.143-.143.116 0 .521-.012.648-.012.21-.014.327-.039.378-.26.024-.091.039-.26.039-.429V132.5c0-.169-.015-.348-.04-.442-.05-.22-.168-.233-.378-.247-.126 0-.635-.014-.751-.014-.091 0-.142-.038-.142-.154v-.662c0-.116.038-.169.13-.169.09 0 2.39-.037 2.494-.037.103 0 .142.05.142.169v4.482h.105c.232-.638.597-1.078 1.13-1.339a2.656 2.656 0 011.104-.248c.557 0 .998.172 1.378.495.363.312.636.843.636 1.596v3.186c0 .17.013.338.036.429.054.221.157.246.367.26.127 0 .544.012.664.012.088 0 .141.024.141.143v.66c0 .117-.04.17-.13.17M62.466 134.814c-.17-.093-.417-.131-.623-.131-.974 0-1.548.756-1.703 2.027h2.976c.09 0 .182-.036.182-.205 0-.69-.286-1.435-.832-1.691zm2.392 2.806H60.1c.057 1.781.778 2.561 1.844 2.561 1.119 0 1.966-.679 2.107-1.896.013-.065.038-.145.18-.145h.611c.066 0 .142.041.142.131 0 .091-.024.287-.051.415-.3 1.378-1.285 2.325-3.053 2.325-2.274 0-3.404-1.61-3.404-3.572 0-1.819 1.13-3.6 3.404-3.6 2.272 0 3.121 1.805 3.121 3.639 0 .063-.03.142-.144.142M69.843 140.659c-.337.235-.803.352-1.285.352-1.469 0-2-.61-2-1.677v-4.3H65.32c-.088 0-.127-.054-.127-.168v-.312c0-.116.117-.181.21-.206.998-.337 1.78-1.704 1.973-2.625.04-.21.116-.248.275-.248h.295c.12 0 .17.052.17.144v2.43h2.092c.093 0 .13.063.13.18v.637c0 .114-.037.168-.13.168h-2.092v3.939c0 .803.351.947.728.947.65 0 .96-.351.96-1.026v-1.222c0-.118.054-.143.144-.143h.52c.09 0 .144.025.144.143v1.312c0 .701-.26 1.312-.769 1.675M158.105 137.453c-.441.05-1.623.272-2.221.766-.261.206-.313.492-.313.79 0 .52.346 1.03 1.016 1.03.987 0 1.518-.952 1.518-1.703v-.883zm2.442.946c0-.116.053-.144.144-.144h.495c.089 0 .14.015.14.131v.34c0 1.025-.247 2.31-1.661 2.31-.935 0-1.404-.571-1.509-1.324h-.051c-.231.637-1.259 1.312-2.245 1.312-1.016 0-1.925-.598-1.925-1.87 0-.818.494-1.246 1.247-1.612.843-.403 2.052-.646 2.897-.816v-1.068c0-.312-.077-.678-.247-.872-.196-.207-.493-.351-.96-.351-.663 0-1.117.208-1.313.532v.04c.207.09.427.404.427.832 0 .518-.297.896-.881.896-.559 0-1.014-.326-1.014-.989 0-1.038 1.258-1.894 2.833-1.894 1.882 0 2.715.689 2.715 2.054v3.61c0 .325.182.43.366.43.361 0 .543-.311.543-1.207v-.34M185.554 137.453c-.439.05-1.623.272-2.219.766-.261.206-.313.492-.313.79 0 .52.344 1.03 1.014 1.03.986 0 1.518-.952 1.518-1.703v-.883zm2.444.946c0-.116.05-.144.142-.144h.495c.09 0 .141.015.141.131v.34c0 1.025-.246 2.31-1.662 2.31-.935 0-1.401-.571-1.506-1.324h-.054c-.231.637-1.259 1.312-2.248 1.312-1.013 0-1.922-.598-1.922-1.87 0-.818.494-1.246 1.247-1.612.845-.403 2.054-.646 2.897-.816v-1.068c0-.312-.077-.678-.244-.872-.196-.207-.496-.351-.963-.351-.661 0-1.117.208-1.308.532v.04c.202.09.425.404.425.832 0 .518-.3.896-.884.896-.559 0-1.014-.326-1.014-.989 0-1.038 1.26-1.894 2.833-1.894 1.885 0 2.717.689 2.717 2.054v3.61c0 .325.18.43.361.43.364 0 .547-.311.547-1.207v-.34M148.891 134.683c-1.26 0-1.596.95-1.596 2.756 0 1.806.454 2.793 1.596 2.793 1.263 0 1.729-1.48 1.729-2.793 0-1.533-.535-2.756-1.729-2.756zm4.432 6.132c-.09 0-2.39.053-2.495.053-.103 0-.154-.063-.154-.182v-1.09h-.041c-.377.739-.87 1.428-2.17 1.428-1.65 0-2.807-1.35-2.807-3.585 0-2.3 1.183-3.6 2.715-3.6 1.17 0 1.898.688 2.223 1.532h.09V132.5c0-.169-.01-.348-.036-.442-.054-.22-.172-.233-.38-.247-.13 0-.634-.014-.754-.014-.088 0-.139-.024-.139-.14v-.663c0-.114.036-.181.13-.181.09 0 2.388-.038 2.493-.038.102 0 .156.05.156.169v8.197c0 .169 0 .339.024.429.05.221.17.235.376.247.131 0 .637.024.754.024.093 0 .145.03.145.144v.663c0 .116-.04.167-.13.167M192.436 134.683c-1.26 0-1.596.95-1.596 2.756 0 1.806.454 2.793 1.596 2.793 1.26 0 1.731-1.48 1.731-2.793 0-1.533-.535-2.756-1.73-2.756zm4.434 6.132c-.095 0-2.393.053-2.495.053-.105 0-.156-.063-.156-.182v-1.09h-.041c-.377.739-.87 1.428-2.17 1.428-1.65 0-2.804-1.35-2.804-3.585 0-2.3 1.18-3.6 2.715-3.6 1.167 0 1.897.688 2.222 1.532h.088V132.5c0-.169-.01-.348-.036-.442-.052-.22-.17-.233-.377-.247-.132 0-.637-.014-.755-.014-.092 0-.143-.024-.143-.14v-.663c0-.114.038-.181.13-.181.09 0 2.392-.038 2.495-.038.105 0 .156.05.156.169v8.197c0 .169 0 .339.026.429.049.221.169.235.376.247.129 0 .638.024.754.024.091 0 .143.03.143.144v.663c0 .116-.04.167-.128.167M172.912 134.683c-1.196 0-1.818 1.223-1.818 2.756 0 1.313.556 2.805 1.819 2.805.88 0 1.467-.999 1.467-2.805 0-1.807-.415-2.756-1.468-2.756zm.205 6.352c-1.142 0-1.83-.48-2.387-1.259h-.041l-.415.961c-.064.156-.118.21-.208.21h-.298c-.117 0-.195-.054-.195-.196v-8.238c0-.168-.015-.352-.04-.442-.05-.22-.168-.234-.378-.246-.129 0-.635-.014-.751-.014-.094 0-.145-.039-.145-.155v-.662c0-.114.051-.169.145-.169.092 0 2.375-.039 2.482-.039.103 0 .157.053.157.168v4.302h.09c.322-.845 1.218-1.404 2.22-1.404 1.532 0 2.65 1.287 2.65 3.587 0 2.235-1.235 3.596-2.885 3.596M180.398 140.79h-3.68c-.09 0-.13-.053-.13-.17v-.66c0-.119.053-.143.143-.143.118 0 .533-.012.664-.012.207-.014.325-.039.379-.26.024-.091.036-.26.036-.429V132.5c0-.169-.013-.348-.036-.442-.054-.22-.171-.233-.379-.247-.131 0-.637-.014-.754-.014-.091 0-.142-.038-.142-.154v-.662c0-.116.039-.169.13-.169.09 0 2.429-.037 2.534-.037.102 0 .153.05.153.169v8.172c0 .17 0 .338.028.429.054.221.167.246.377.26.128 0 .545.012.663.012.09 0 .144.024.144.143v.66c0 .117-.042.17-.13.17"/>
    <path fill="#231f20" d="M101.689 65.485c-5.146 0-9.543-3.435-9.543-9.116 0-5.511 5.171-7.948 6.563-8.529v-.233c-1.01-.78-2.203-1.738-5.57-1.738-6.608 0-11.482 2.866-11.482 12.97v7.594h11.831c.813 0 1.16.581 1.16 1.624v8.086c0 1.045-.347 1.509-1.16 1.509h-11.83v30.144c0 1.507.114 3.015.348 3.828.464 1.972 1.506 2.204 3.365 2.32 1.16 0 5.451.116 6.495.116.812 0 1.272.232 1.272 1.276v9.794c0 1.042-.346 1.509-1.156 1.509H51.198c-.81 0-1.16-.467-1.16-1.51v-9.793c0-1.044.465-1.276 1.277-1.276 1.045 0 4.64-.116 5.8-.116 1.86-.116 2.898-.348 3.366-2.32.231-.813.346-2.32.346-3.828V77.652h-9.743c-.813 0-1.163-.464-1.163-1.509v-8.086c0-1.043.35-1.624 1.163-1.624h9.743v-4.64c0-12.644 10.488-24.708 28.673-24.708 15.926 0 22.552 10.103 22.552 16.484 0 7.959-4.73 11.916-10.363 11.916M197.049 119.448c0-5.55-4.103-9.157-9.158-9.157-5.058 0-9.158 3.608-9.158 9.157 0 5.547 4.1 9.156 9.158 9.156 5.055 0 9.158-3.609 9.158-9.156M80.557 140.79h-3.609c-.09 0-.13-.053-.13-.17v-.66c0-.119.052-.143.143-.143.117 0 .336-.012.466-.012.208-.014.324-.039.377-.26.025-.091.037-.26.037-.429v-3.38c0-.169-.012-.354-.037-.442-.053-.224-.17-.26-.377-.26h-2.45v4.082c0 .17.012.338.04.429.05.221.166.246.376.26.129 0 .376.012.492.012.091 0 .142.024.142.143v.66c0 .117-.038.17-.129.17h-3.507c-.09 0-.13-.053-.13-.17v-.66c0-.119.053-.143.143-.143.118 0 .519-.012.65-.012.21-.014.324-.039.377-.26.026-.091.037-.26.037-.429v-4.082h-1.09c-.09 0-.129-.054-.129-.168v-.638c0-.116.038-.18.129-.18h1.09v-.273c0-1.415 1.27-3 3.44-3 1.65 0 2.35.881 2.35 1.609 0 .636-.416 1.037-.896 1.037-.611 0-.844-.335-.844-.778a.79.79 0 01.441-.728v-.024c-.118-.208-.493-.417-1.078-.417-.91 0-1.903.65-1.903 2.002v.573h4.216c.104 0 .157.05.157.06v4.9c0 .276 0 .445.024.536.053.221.168.246.378.26.13 0 .673.012.793.012.09 0 .142.024.142.143v.66c0 .117-.038.17-.13.17M89.314 140.79h-3.569c-.093 0-.132-.053-.132-.17v-.66c0-.119.04-.143.132-.143.116 0 .426-.012.557-.012.208-.014.324-.039.377-.26.025-.091.038-.26.038-.429v-3.044c0-.767-.233-1.3-1.065-1.3-1.299 0-1.715 1.455-1.715 2.494v1.85c0 .17.012.338.04.429.052.221.168.246.376.26.131 0 .425.012.544.012.09 0 .144.024.144.143v.66c0 .117-.041.17-.13.17H81.35c-.09 0-.128-.053-.128-.17v-.66c0-.119.052-.143.142-.143.116 0 .52-.012.65-.012.208-.014.324-.039.378-.26.024-.091.04-.26.04-.429v-3.38c0-.169-.016-.354-.04-.442-.054-.224-.17-.234-.377-.25-.13 0-.535-.01-.65-.01-.091 0-.143-.04-.143-.157v-.662c0-.116.037-.166.128-.166.092 0 2.288-.038 2.392-.038.104 0 .144.05.144.167v1.207h.104c.299-1.012 1.298-1.546 2.232-1.546 1.326 0 2.013.78 2.013 2.091v3.186c0 .17.016.338.04.429.053.221.157.246.365.26.13 0 .545.012.662.012.092 0 .143.024.143.143v.66c0 .117-.038.17-.131.17M94.318 137.453c-.441.05-1.625.272-2.222.766-.258.206-.312.492-.312.79 0 .52.347 1.03 1.017 1.03.985 0 1.517-.952 1.517-1.703v-.883zm2.44.946c0-.116.056-.144.144-.144h.495c.091 0 .144.015.144.131v.34c0 1.025-.246 2.31-1.663 2.31-.937 0-1.403-.571-1.507-1.324h-.053c-.233.637-1.26 1.312-2.246 1.312-1.014 0-1.924-.598-1.924-1.87 0-.818.494-1.246 1.248-1.612.843-.403 2.052-.646 2.896-.816v-1.068c0-.312-.078-.678-.246-.872-.196-.207-.495-.351-.96-.351-.665 0-1.119.208-1.314.532v.04c.207.09.428.404.428.832 0 .518-.298.896-.884.896-.556 0-1.012-.326-1.012-.989 0-1.038 1.26-1.894 2.832-1.894 1.885 0 2.715.689 2.715 2.054v3.61c0 .325.181.43.364.43.363 0 .543-.311.543-1.207v-.34M106.012 140.79h-3.571c-.09 0-.129-.053-.129-.17v-.66c0-.119.039-.143.129-.143.117 0 .426-.012.556-.012.21-.014.325-.039.379-.26.025-.091.039-.26.039-.429v-3.044c0-.767-.235-1.3-1.066-1.3-1.299 0-1.715 1.455-1.715 2.494v1.85c0 .17.013.338.04.429.052.221.166.246.376.26.128 0 .428.012.543.012.094 0 .145.024.145.143v.66c0 .117-.04.17-.132.17h-3.558c-.092 0-.131-.053-.131-.17v-.66c0-.119.053-.143.144-.143.117 0 .52-.012.65-.012.207-.014.325-.039.378-.26.024-.091.037-.26.037-.429v-3.38c0-.169-.013-.354-.037-.442-.053-.224-.17-.234-.379-.25-.129 0-.532-.01-.649-.01-.09 0-.144-.04-.144-.157v-.662c0-.116.039-.166.131-.166.09 0 2.286-.038 2.391-.038.104 0 .144.05.144.167v1.207h.102c.3-1.012 1.3-1.546 2.234-1.546 1.328 0 2.015.78 2.015 2.091v3.186c0 .17.013.338.038.429.052.221.16.246.364.26.13 0 .546.012.663.012.09 0 .143.024.143.143v.66c0 .117-.039.17-.13.17M110.976 136.436c0-.48.246-.752.61-.974-.156-.533-.74-.727-1.362-.727-.989 0-1.821.885-1.873 2.678.052 1.636.78 2.663 1.847 2.663 1.117 0 1.804-.573 1.948-1.79.013-.066.039-.146.183-.146h.61c.064 0 .142.041.142.131 0 .091-.025.287-.052.415-.3 1.378-1.13 2.325-2.898 2.325-2.273 0-3.403-1.61-3.403-3.572 0-1.819 1.13-3.6 3.403-3.6 2.133 0 2.832 1.466 2.832 2.325 0 .714-.441 1.206-1.039 1.206-.401 0-.948-.272-.948-.934M115.564 132.985a1.038 1.038 0 01-1.053-1.04c0-.588.467-1.054 1.053-1.054.583 0 1.051.466 1.051 1.054a1.04 1.04 0 01-1.051 1.04zm1.975 7.805h-3.716c-.09 0-.131-.053-.131-.17v-.66c0-.119.053-.143.143-.143.118 0 .573-.012.703-.012.206-.014.325-.039.376-.26.025-.091.04-.26.04-.429v-3.38c0-.169-.015-.354-.04-.442-.05-.224-.17-.234-.376-.25-.13 0-.637-.01-.755-.01-.091 0-.143-.04-.143-.157v-.662c0-.116.041-.166.131-.166s2.43-.038 2.534-.038c.103 0 .155.05.155.061v4.938c0 .275 0 .444.025.535.053.221.167.246.377.26.13 0 .547.012.663.012.091 0 .143.024.143.143v.66c0 .117-.04.17-.13.17M136.914 140.79h-3.676c-.09 0-.13-.053-.13-.17v-.66c0-.119.05-.143.142-.143.116 0 .534-.012.664-.012.207-.014.325-.039.376-.26.024-.091.039-.26.039-.429V132.5c0-.169-.015-.348-.039-.442-.051-.22-.169-.233-.376-.247-.13 0-.638-.014-.755-.014-.093 0-.144-.038-.144-.154v-.662c0-.116.039-.169.133-.169.09 0 2.426-.037 2.533-.037.103 0 .156.05.156.169v8.172c0 .17 0 .338.024.429.051.221.166.246.376.26.13 0 .545.012.664.012.091 0 .143.024.143.143v.66c0 .117-.039.17-.13.17M122.24 134.814c-.172-.093-.415-.131-.625-.131-.973 0-1.545.756-1.7 2.027h2.975c.09 0 .18-.036.18-.205 0-.69-.286-1.435-.83-1.691zm2.391 2.806h-4.756c.059 1.781.777 2.561 1.845 2.561 1.119 0 1.964-.679 2.105-1.896.015-.065.04-.145.183-.145h.609c.066 0 .144.041.144.131 0 .091-.027.287-.054.415-.298 1.378-1.285 2.325-3.051 2.325-2.276 0-3.404-1.61-3.404-3.572 0-1.819 1.128-3.6 3.404-3.6 2.273 0 3.117 1.805 3.117 3.639 0 .063-.024.142-.142.142M129.661 134.814c-.171-.093-.416-.131-.624-.131-.976 0-1.547.756-1.7 2.027h2.975c.088 0 .182-.036.182-.205 0-.69-.286-1.435-.833-1.691zm2.39 2.806h-4.754c.057 1.781.78 2.561 1.844 2.561 1.118 0 1.965-.679 2.106-1.896.013-.065.042-.145.184-.145h.605c.069 0 .144.041.144.131 0 .091-.024.287-.051.415-.3 1.378-1.287 2.325-3.054 2.325-2.271 0-3.401-1.61-3.401-3.572 0-1.819 1.13-3.6 3.401-3.6 2.275 0 3.12 1.805 3.12 3.639 0 .063-.025.142-.144.142M141.768 134.814c-.17-.093-.415-.131-.625-.131-.972 0-1.545.756-1.702 2.027h2.977c.092 0 .18-.036.18-.205 0-.69-.283-1.435-.83-1.691zm2.39 2.806H139.4c.059 1.781.781 2.561 1.846 2.561 1.12 0 1.963-.679 2.108-1.896.009-.065.039-.145.18-.145h.608c.066 0 .144.041.144.131a2.7 2.7 0 01-.05.415c-.302 1.378-1.288 2.325-3.053 2.325-2.273 0-3.405-1.61-3.405-3.572 0-1.819 1.132-3.6 3.405-3.6 2.273 0 3.117 1.805 3.117 3.639 0 .063-.026.142-.144.142"/>
    <path fill="#5e9ca8" d="M166.199 136.192c0 .935-.349 1.612-1.314 1.612-.959 0-1.365-.665-1.365-1.612 0-.95.406-1.613 1.365-1.613.965 0 1.314.677 1.314 1.613zm-3.299 5.454c0-.387.376-.92.894-.974 0-.013 1.938-.013 1.938-.013 1.038 0 1.455.196 1.455.78 0 .741-.43 1.42-2.302 1.42-1.504 0-1.985-.589-1.985-1.212zm4.395-7.485c0 .261.195.611.664.611.453 0 .806-.35.806-.792 0-.779-.56-1.092-1.143-1.092-.78 0-1.262.677-1.316 1.183h-.097a3.46 3.46 0 00-1.294-.232c-1.573 0-2.861.652-2.861 2.353 0 .726.297 1.31.792 1.65v.024c-.507.21-1.066.612-1.066 1.39 0 .715.715 1.184 1.262 1.262v.052c-.635.039-1.428.481-1.428 1.245 0 .899.766 1.73 3.271 1.73 2.51 0 3.611-1.131 3.611-2.572 0-1.56-1.022-1.57-2.285-1.57-.689 0-1.714-.013-2.546-.013-.714 0-.911-.405-.911-.613 0-.207.261-.483.507-.572.484.233 1.016.338 1.654.338 1.57 0 2.777-.65 2.777-2.35 0-.72-.328-1.408-.978-1.853.027-.385.23-.722.53-.722.144 0 .222.051.246.088v.029a.557.557 0 00-.195.426"/>
  </g>
</svg>
