<svg xmlns="http://www.w3.org/2000/svg" id="Laag_1" x="0" y="0" enable-background="new 0 0 748.7 93.2" version="1.1" viewBox="0 0 748.7 93.2" xml:space="preserve">
  <defs/>
    <style type="text/css">
    .st0{fill:#fff}
  </style>
    <path d="M337.3 83.2c-15.6-6.2-19-11.3-19-28.2V39.7c0-7.7 0-7.7-7.9-8.8V12.2c8.6 0 17.2-.4 25.7.2 4.8.3 6.1 4.6 6.1 8.8.1 10 0 20 0 30.1 0 4-.2 8.4 4.5 9.9s9.3.4 12.9-3.2c4.6-4.6 5.4-10.4 5.5-16.4.1-9.7 0-19.3 0-29.4H389v41.1c0 7.8 0 7.8 7.9 9.1v18.7c-8.1 0-16.1.3-24-.1-4.8-.3-7.1-3.6-7.1-7.3-5.4 3.1-11 6.2-16.6 9.4-3.9.1-7.9.1-11.9.1zM10.3 56.5C14 46.4 22.4 42.1 32.2 40c6.6-1.4 13.4-2 20.1-2.9.4-5.7-1.4-8.4-6.3-9.1-5.9-.9-7.9.4-9.3 6H16c-2.8-12.2 1.3-19.3 13.3-22.2 9.9-2.4 19.8-2.4 29.6.6 10.4 3.2 16.5 10.3 17.4 21.1.6 6.4.5 12.8.5 19.2.1 8.4 0 8.4 8.1 10v18.5c-8.1 0-16.2.4-24.2-.3-2.4-.2-4.5-3.5-6.7-5.4-4 2.2-8.9 5-13.8 7.7h-11c-9.4-2.8-16.1-8.2-19-17.8.1-2.9.1-5.9.1-8.9zm42.6-5.3c-4.9.9-9.4 1.4-13.5 2.7-3.3 1-6 3.4-4.5 7.5 1.5 4 5 4.5 8.7 3.6 5.4-1.4 8.9-6.2 9.3-13.8zM550.3 83.2c-1.5-.6-2.9-1.3-4.4-1.9-8.9-3.7-13.6-10.3-14-19.7-.4-8.3 3.8-15.3 13-18.4 7.6-2.6 15.8-3.6 23.7-5.2 1.7-.3 3.6 0 5.3 0 .3-6.4-1.6-9.1-6.4-9.9-5.8-.9-7.6.2-9.4 6h-20.7c-3-11.1 1.1-18.7 11.9-21.8 9.6-2.7 19.4-2.8 29.1-.4 12.5 3.1 19.2 11.3 19.8 24 .3 5.6.1 11.2.1 16.7 0 8.4 0 8.4 8 10.1v18.5c-8 0-15.9.5-23.7-.3-2.6-.2-4.8-3.6-6.9-5.3-4.2 2.2-9.2 5-14.3 7.7-3.7-.1-7.4-.1-11.1-.1zm23.7-32c-4.7 1-9.4 1.7-13.8 3-3.2 1-5.3 3.9-3.6 6.9 1.2 2 4.5 3.9 6.9 4 6 .1 11-6.4 10.5-13.9zM265.3 83.2c-2.2-.6-4.4-1.3-6.6-1.9-17.3-5-27.8-18.8-27.1-35.6.7-16.9 12.5-30.6 29.7-34.3 9.5-2 18.9-1.5 27.9 2.1 15.2 5.9 23.7 19.2 23.1 35.6-.5 14.8-10.6 27.3-25.9 32.1-2.3.7-4.7 1.4-7 2.2-4.7-.2-9.4-.2-14.1-.2zm23-36.6c-.1-9.8-7-16.9-16.4-16.9-9.3 0-16.2 7.3-16.2 17 0 9.8 6.8 16.8 16.4 16.8 9.4.1 16.3-7.1 16.2-16.9zM191.3 83.2c-2-.6-4.1-1.2-6.1-1.8-16.8-4.8-27.3-19.1-26.7-36.1.6-16.8 12-30.5 28.9-33.8 6.1-1.2 12.7-1.5 18.8-.5 19.2 3.3 20.2 11.1 18.7 25h-19.5c-2.1-6.4-5.3-7.8-11.9-5.7-8 2.6-12.2 10.9-10.3 20 1.7 8.2 9.3 13.5 18.8 12.4 3.4-.4 6.8-1.6 9.9-3 3-1.3 5.6-3.4 8.8-5.4 2.7 4.4 5.6 8.6 7.9 13.1.6 1.1-.2 4.1-1.3 4.7-6.1 3.5-12.5 6.7-18.7 9.9-1 .5-2.1.8-3.1 1.2h-14.2zM118.3 83.2c-2.2-.6-4.4-1.3-6.6-1.9-16.6-4.9-27-19.3-26.2-36.4.8-16.9 12.7-30.6 29.8-33.5 5.8-1 12-1.2 17.8-.3 15.9 2.4 20.1 8.1 18.9 25h-19.5c-2.4-6.6-6-8-12.8-5.4-7.6 3-11.5 11.1-9.5 20 1.8 8 9.4 13.6 18.5 12 6.5-1.1 12.5-4.5 19.6-7.2 2.1 3.4 5 7.9 7.6 12.6.5.9-.6 3-1.5 4-6.4 6.2-14.6 8.9-23 11.1h-13.1zM738.3 82.2c-6.9-.6-14.1-.4-20.7-2-13-3.1-19.1-11.5-19.2-24.7V30.2c-3.1-.1-5.7-.3-8.7-.4V12.5h47.2v17.2h-14.3c0 8.7-.4 17 .2 25.3.3 4.1 4.3 5.6 8.1 6.2 2.4.4 5 .2 7.5.2-.1 7-.1 13.9-.1 20.8z"/>
    <path d="M10.3 65.4c2.9 9.5 9.6 15 19 17.8h-19V65.4z" class="st0"/>
    <path d="M397.5 30.9V12.2c8.2 0 16.1-.3 24 .1 4.6.2 6.3 2.8 7.4 10.1 1.4-2 2-3.3 3-4.3 8.6-8.6 19-9.5 30-6.3 10.2 3 14.1 10.9 14.7 20.6.4 6.7.3 13.5.4 20.2.1 8.4 0 8.4 8 9.9V81c-8.8 0-17.5.4-26.2-.2-4.2-.3-5.7-4.1-5.8-8.1-.1-9-.1-18.1-.1-27.1v-3c-.2-4.2.4-8.9-4.9-10.8-5-1.8-12.3.3-14.9 5.3-2.1 4.1-3.5 8.9-3.7 13.5-.5 10-.2 20-.2 30.3h-24V46.3v-6.4c.2-7.8.2-7.8-7.7-9zM694.1 62.4v18.7c-8.8 0-17.4.4-25.9-.1-4.5-.3-6-4.2-6.1-8.3-.1-9.2-.1-18.4-.1-27.6v-2.5c-.2-4.1.3-8.5-4.6-10.5-4.6-1.9-12.2-.1-14.7 4.6-2.3 4.3-3.9 9.5-4.2 14.3-.6 9.9-.2 19.9-.2 30.2h-24V71 40.4c0-8 0-8-7.9-9.6V12.4c8.4 0 16.9-.4 25.2.2 4.3.3 6.1 4 5.7 9.5 8.5-10.9 18.8-13.5 30.9-11 9.8 2 16 8.3 17 18.1.8 8 .7 16.1.8 24.1.1 8 0 8 8.1 9.1zM489.4 30.2c-3.3-.2-5.9-.3-8.8-.4V12.6H528v17.2h-14.4c0 8.6-.4 16.7.1 24.8.3 4.3 4.3 6 8.3 6.7 2.2.4 4.6.3 7.1.5v20c-10.5.9-20.4.3-29.4-5.4-7.2-4.6-10.1-11.5-10.2-19.7-.2-8.6-.1-17.3-.1-26.5z"/>
    <path d="M52.9 51.2c-.5 7.6-4 12.4-9.4 13.8-3.7.9-7.2.4-8.7-3.6-1.5-4 1.2-6.4 4.5-7.5 4.3-1.3 8.7-1.8 13.6-2.7zM574 51.2c.5 7.5-4.4 14-10.5 13.9-2.4-.1-5.7-2-6.9-4-1.7-2.9.4-5.9 3.6-6.9 4.4-1.3 9.1-2 13.8-3z" class="st0"/>
</svg>
