<svg xmlns="http://www.w3.org/2000/svg" width="517.744" height="126.759" x="0" y="0" enable-background="new 0 0 517.744 126.759" version="1.1" xml:space="preserve">
  <defs/>
    <path fill="#1D1D1B" d="M97.543 100.354c-.678 0-22.172.388-22.946.388s-1.161-.484-1.161-1.355v-7.165h-.291c-2.904 5.325-6.196 9.585-15.878 9.585-12.296 0-20.719-9.972-20.719-26.624 0-17.137 10.747-26.818 22.171-26.818 7.067 0 11.715 3.194 13.845 7.552h.484V42.071c0-1.259-.097-2.614-.29-3.292-.388-1.646-1.259-1.743-2.809-1.84-.968 0-4.743-.097-5.615-.097-.678 0-1.064-.193-1.064-1.065v-8.616c0-.871.29-1.355.968-1.355s24.592-.29 25.366-.29 1.162.387 1.162 1.258v57.413c0 1.259 0 2.517.193 3.194.388 1.646 1.259 1.743 2.808 1.84.968 0 2.808.193 3.679.193.678 0 1.065.194 1.065 1.065v8.616c0 .873-.29 1.259-.968 1.259zm-33.79-42.018c-5.519 0-8.229 4.357-8.229 16.847S57.945 92.32 63.56 92.32c6.487 0 9.004-7.358 9.004-17.137-.001-11.425-2.808-16.847-8.811-16.847zM116.515 76.538c.388 10.456 2.904 14.619 10.263 14.619 5.422 0 9.004-3.485 10.068-10.069.098-.483.291-1.064 1.355-1.064h8.617c.484 0 1.065.29 1.065.968s-.194 2.13-.388 3.099c-2.13 8.81-8.52 17.717-23.43 17.717-18.589 0-26.431-12.779-26.431-26.624 0-13.555 9.004-26.818 25.946-26.818 16.169 0 24.398 9.585 24.398 27.108 0 .484-.194 1.065-1.065 1.065h-30.398zm.193-7.358h11.425c.678 0 1.355-.29 1.355-1.549 0-5.422-2.033-9.488-5.81-9.488-4.162 0-6.679 3.388-6.97 11.037z"/>
    <path fill="#5A1D3C" d="M212.844 77.506c0 16.943-9.391 24.301-27.689 24.301-12.683 0-21.59-7.745-21.59-19.169 0-8.617 5.809-12.684 11.812-12.684 6.293 0 9.972 3.195 9.972 9.488 0 5.905-5.615 8.616-9.778 8.616-.581 0-1.355-.097-1.937-.193.969 1.743 4.744 2.421 8.617 2.421 6.196 0 10.359-3.195 10.359-12.78V48.945c0-4.841-.678-7.648-1.84-9.198-.871-1.064-2.13-1.452-3.679-1.549-1.065-.097-5.422-.193-6.39-.193-.775 0-1.162-.194-1.162-1.162v-9.197c0-.969.29-1.355 1.064-1.355h44.343c.774 0 1.064.387 1.064 1.355v9.197c0 .968-.387 1.162-1.161 1.162-.969 0-5.325.097-6.391.193-1.549.097-2.808.484-3.679 1.549-1.162 1.55-1.937 4.357-1.937 9.198v28.561z"/>
    <path fill="#5A1D3C" d="M245.37 82.443c0 4.841 1.646 7.939 5.712 7.939 7.358 0 7.939-7.843 7.939-14.039V65.888c0-1.259-.097-2.517-.291-3.194-.387-1.646-1.258-1.84-2.808-1.937-.968 0-1.064-.097-1.936-.097-.678 0-1.065-.194-1.065-1.065v-8.423c0-.871.29-1.259.968-1.259h22.172c.678 0 .968.388.968 1.259v33.015c0 1.259.097 2.614.291 3.292.387 1.646 1.258 1.742 2.808 1.839.968 0 2.033.097 2.904.097.678 0 1.064.291 1.064 1.162V99c0 .872-.29 1.259-.968 1.259s-19.944.291-20.719.291-1.065-.388-1.065-1.259v-9.004h-.774c-2.227 7.552-7.455 11.521-16.652 11.521-10.649 0-16.652-6.776-16.652-16.556V65.888c0-1.259-.097-2.517-.291-3.194-.387-1.646-1.161-1.84-2.711-1.937-.968 0-2.13-.097-3.001-.097-.678 0-1.064-.194-1.064-1.065v-8.423c0-.871.29-1.259.968-1.259h23.236c.678 0 .968.388.968 1.259v31.271zM329.424 71.116c-5.906 0-8.036-4.26-8.036-7.358 0-3.775 1.55-5.325 3.099-6.777v-.193c-.097-.097-.388-.193-.678-.193-1.84 0-4.454.29-7.455 4.453-2.711 3.776-3.679 10.94-3.679 15.395v7.745c0 1.259.097 2.614.29 3.292.388 1.646 1.259 1.742 2.808 1.839.969 0 4.066.097 4.938.097.678 0 1.065.194 1.065 1.065v8.326c0 .871-.388 1.355-1.065 1.355h-32.143c-.678 0-.969-.484-.969-1.355v-8.326c0-.871.388-1.065 1.065-1.065.871 0 2.033-.097 3.001-.097 1.549-.097 2.323-.193 2.711-1.839.193-.678.29-2.033.29-3.292v-18.3c0-1.259-.097-2.614-.29-3.292-.388-1.646-1.162-1.742-2.711-1.839-.968 0-2.13-.097-3.001-.097-.678 0-1.065-.194-1.065-1.065v-8.52c0-.872.291-1.259.969-1.259s21.88-.291 22.655-.291c.774 0 1.161.388 1.161 1.259v8.229h.194c2.808-7.455 7.551-10.649 14.522-10.649 8.035 0 11.23 6.39 11.23 12.005.001 6.196-3.291 10.747-8.906 10.747zM372.02 100.161h-30.013c-.678 0-.969-.388-.969-1.259v-8.423c0-.871.388-1.065 1.065-1.065.871 0 1.742-.097 2.711-.097 1.549-.097 2.42-.29 2.808-1.937.193-.678.29-1.936.29-3.194V65.888c0-1.259-.097-2.614-.29-3.292-.388-1.646-1.259-1.742-2.808-1.839-.969 0-2.324-.097-3.195-.097-.678 0-1.064-.291-1.064-1.162v-8.326c0-.871.29-1.259.968-1.259s22.462-.29 23.236-.29 1.161.387 1.161 1.258v33.306c0 1.259 0 2.517.194 3.194.387 1.646 1.258 1.84 2.808 1.937.968 0 2.13.097 3.001.097.678 0 1.065.194 1.065 1.065v8.423c0 .87-.291 1.258-.968 1.258zm-15.104-56.734c-5.228 0-9.488-3.68-9.488-9.004 0-5.229 4.261-9.005 9.488-9.005 5.229 0 9.488 3.776 9.488 9.005 0 5.324-4.259 9.004-9.488 9.004zM402.533 101.807c-7.261 0-11.134-2.227-15.103-6.39h-.194l-1.839 4.938c-.098.194-.194.484-.484.484h-7.843c-.29 0-.483-.193-.483-.388V81.669c0-.387.193-.484.581-.484h7.164c.388 0 .581.291.774.775 3.292 8.035 8.133 10.746 15.007 10.746 4.356 0 4.938-1.937 4.938-3.872 0-3.292-3.389-4.551-11.327-6.487-10.263-2.518-17.233-6.39-17.233-17.233 0-12.586 10.649-16.749 18.298-16.749 7.358 0 12.587 2.711 14.619 5.905h.194l.968-4.26c.097-.29.193-.484.484-.484h6.777c.29 0 .387.194.387.388v16.362c0 .387-.097.678-.483.678h-6.584c-.388 0-.581-.291-.774-.774-2.421-6.196-6.681-9.004-10.747-9.004-3.292 0-5.131.968-5.131 3.775s2.323 4.454 9.585 6.003c12.198 2.614 18.298 6.68 18.298 17.427-.001 9.874-7.456 17.426-19.849 17.426zM467.107 84.768c0 11.424-5.422 17.039-19.267 17.039-12.296 0-17.33-7.164-17.33-15.104V60.66h-7.262c-.678 0-.968-.388-.968-1.259V52.72c0-.871.871-1.355 1.549-1.549 7.455-2.518 12.78-11.715 14.232-18.589.29-1.549.871-1.84 2.033-1.84h7.164c.872 0 1.259.388 1.259 1.065v18.104h16.556c.678 0 .969.484.969 1.355v8.133c0 .871-.291 1.259-.969 1.259h-16.556v24.01c0 6.003 2.323 7.068 5.132 7.068 4.065 0 4.55-2.614 4.55-7.648v-9.102c0-.871.388-1.064 1.065-1.064h6.777c.678 0 1.064.193 1.064 1.064v9.782z"/>
    <path fill="#1D1E1C" d="M481.628 83.218c4.938 0 9.294 3.68 9.294 9.295 0 5.809-4.356 9.294-9.294 9.294-4.938 0-9.295-3.485-9.295-9.294 0-5.616 4.356-9.295 9.295-9.295z"/>
</svg>
