<svg version="1.1" id="Component_5_1" xmlns="http://www.w3.org/2000/svg" x="0" y="0" viewBox="0 0 221.2 60.6" xml:space="preserve"><style>.st0{enable-background:new}.st1{fill:#fff}.st2{fill:#fb911a}.st3{fill:#f0cdb0}.st4{fill:#ecc19c}.st5,.st6{fill:#543e36}.st6{fill-rule:evenodd;clip-rule:evenodd}.st7{fill:#383838}.st11{fill:#1b50c5}.st13{fill:#e7ecf2}</style><g class="st0"><path class="st1" d="M77.8 28.9c-1.9 0-3.3-.4-4.3-1.3-1-.8-1.5-2.2-1.5-3.9v-1.8h3.2v1.6c0 .9.2 1.5.6 1.9.4.4 1 .6 1.7.6s1.3-.2 1.6-.6c.3-.4.5-1 .5-1.8V10.7h3.6v12.8c0 .8-.1 1.5-.3 2.1-.2.7-.6 1.2-1 1.7s-1 .9-1.7 1.1c-.7.3-1.5.5-2.4.5zm15.8-.4c-.1-.1-.2-.3-.2-.6s-.1-.5-.1-.8c-.2.2-.4.5-.6.7-.2.2-.5.4-.8.5-.3.2-.6.3-1 .4s-.9.1-1.4.1c-1.3 0-2.4-.3-3.2-1-.8-.7-1.2-1.6-1.2-2.9 0-.7.1-1.3.4-1.8.3-.5.6-.9 1.1-1.2.5-.3 1-.6 1.6-.7.6-.2 1.3-.3 2-.4 1.1-.2 1.9-.3 2.4-.5s.8-.5.8-1-.2-.8-.5-1.1-.9-.4-1.6-.4c-.8 0-1.4.1-1.8.4-.4.3-.6.7-.7 1.4h-3c0-.6.1-1.1.4-1.6.2-.5.6-1 1-1.3.4-.4 1-.7 1.7-.9s1.5-.4 2.4-.4c1.9 0 3.3.4 4.1 1.2.8.8 1.3 2 1.3 3.5v6.5c0 1 .1 1.6.5 1.8v.1h-3.6zm-3.4-2c.5 0 .9-.1 1.3-.2s.7-.3 1-.6c.3-.2.5-.5.6-.8.1-.3.2-.6.2-.9v-1.9c-.3.2-.7.3-1.1.4-.4.1-.9.2-1.3.3-.9.2-1.6.4-2 .7s-.6.7-.6 1.3c0 .6.2 1 .6 1.3.2.3.7.4 1.3.4zm11.7-9c.5-.7 1-1.2 1.6-1.6.6-.3 1.4-.5 2.2-.5.7 0 1.3.1 1.8.4.5.2 1 .6 1.4 1 .4.4.7.9.9 1.5.2.6.3 1.2.3 1.9v8.4h-3.4v-7.9c0-.7-.2-1.3-.6-1.7-.4-.4-.9-.6-1.6-.6-.8 0-1.4.3-1.9.8s-.7 1.3-.7 2.1v7.3h-3.4V15.7h3.3v1.8z"/></g><g class="st0"><path class="st1" d="M71.6 35.7h8c1 0 1.8.1 2.5.3.7.2 1.3.5 1.8 1 .9.9 1.4 2 1.4 3.4 0 .9-.3 1.7-.8 2.3-.5.6-1.2 1-2 1.3 1 .3 1.8.8 2.4 1.6s.9 1.7.9 2.8c0 .9-.1 1.6-.4 2.2-.3.6-.7 1.1-1.2 1.6s-1.2.8-1.9 1-1.6.4-2.6.4h-8.2V35.7zm7.5 7.2c.8 0 1.4-.2 1.9-.5.5-.4.7-.9.7-1.6 0-.7-.2-1.2-.7-1.5-.5-.4-1.1-.5-1.9-.5h-4V43h4zm-3.9 7.7h4.2c.9 0 1.6-.2 2.1-.7s.7-1 .7-1.8c0-.9-.3-1.5-.8-1.9-.5-.4-1.2-.7-2.1-.7h-4.1v5.1zM94 53.9c-1.1 0-2-.2-2.8-.5-.8-.3-1.5-.8-2.1-1.4-.6-.6-1-1.3-1.3-2.2-.3-.8-.4-1.7-.4-2.7s.2-1.8.5-2.7c.3-.8.7-1.5 1.3-2.1.6-.6 1.2-1.1 2-1.4.8-.3 1.6-.5 2.6-.5s1.9.2 2.7.6c.8.4 1.4.9 2 1.6.5.7.9 1.5 1.2 2.4.3.9.4 2 .4 3.1h-9.3c.1 1 .5 1.8 1 2.4s1.3.8 2.3.8c.7 0 1.2-.1 1.6-.4.4-.3.7-.7.9-1.2h3.3c-.1.6-.3 1.1-.6 1.6s-.7 1-1.2 1.3c-.5.4-1.1.7-1.7.9-.9.3-1.6.4-2.4.4zM93.7 43c-.9 0-1.6.2-2.1.7-.5.5-.8 1.2-.9 2h5.7c-.1-.8-.3-1.5-.8-2-.5-.4-1.1-.7-1.9-.7zm7.9-7.3h3.4v17.9h-3.4V35.7zm13.7 17.9c-.1-.1-.2-.3-.2-.6s-.1-.5-.1-.8c-.2.2-.4.5-.6.7-.2.2-.5.4-.8.5-.3.2-.6.3-1 .4-.4.1-.9.1-1.4.1-1.3 0-2.4-.3-3.2-1-.8-.7-1.2-1.6-1.2-2.9 0-.7.1-1.3.4-1.8.3-.5.6-.9 1.1-1.2.5-.3 1-.6 1.6-.7.6-.2 1.3-.3 2-.4 1.1-.2 1.9-.3 2.4-.5s.8-.5.8-1-.2-.8-.5-1.1-.9-.4-1.6-.4c-.8 0-1.4.1-1.8.4-.4.3-.6.7-.7 1.4h-3c0-.6.1-1.1.4-1.6.2-.5.6-1 1-1.3.4-.4 1-.7 1.7-.9s1.5-.4 2.4-.4c1.9 0 3.3.4 4.1 1.2.8.8 1.3 2 1.3 3.5v6.5c0 1 .2 1.6.5 1.8v.1h-3.6zm-3.4-2.1c.5 0 .9-.1 1.3-.2s.7-.3 1-.6c.3-.2.5-.5.6-.8.1-.3.2-.6.2-.9v-1.9c-.3.2-.7.3-1.1.4s-.9.2-1.3.3c-.9.2-1.6.4-2 .7s-.6.7-.6 1.3c0 .6.2 1 .6 1.3.3.3.7.4 1.3.4zm13.6 2.4c-1.9 0-3.3-.4-4.3-1.2-1-.8-1.6-1.9-1.7-3.3h3.2c.1.8.4 1.3.9 1.6.5.3 1.1.5 1.9.5.8 0 1.3-.1 1.7-.4s.6-.6.6-1.1c0-.3-.1-.5-.3-.7s-.4-.3-.8-.5-.7-.2-1.1-.3c-.4-.1-.8-.2-1.3-.2-.6-.1-1.1-.2-1.7-.4-.5-.2-1-.4-1.5-.7s-.8-.7-1-1.1c-.3-.5-.4-1-.4-1.7s.1-1.3.4-1.8c.3-.5.6-.9 1.1-1.3.5-.3 1-.6 1.7-.8.6-.2 1.3-.2 2-.2 1.7 0 3 .4 3.9 1.1.9.8 1.4 1.8 1.6 3.1h-3.1c-.1-.7-.3-1.2-.8-1.5-.4-.3-1-.4-1.7-.4s-1.2.1-1.6.4c-.4.2-.6.6-.6 1.1 0 .3.1.5.3.7.2.2.5.3.8.4.3.1.7.2 1.1.3.4.1.9.1 1.3.2.5.1 1.1.2 1.6.4s1 .4 1.5.7.8.7 1 1.1c.3.5.4 1.1.4 1.8s-.1 1.2-.4 1.7c-.3.5-.6.9-1.1 1.3-.5.3-1 .6-1.7.8s-1.1.4-1.9.4zm5.9-13.2h1.8v-4h3.3v4h2.2V43h-2.2v6.8c0 .5.1.8.3 1 .2.2.5.3.9.3h1v2.5h-2.2c-.4 0-.8 0-1.2-.1s-.8-.3-1.1-.5-.6-.6-.8-1c-.2-.4-.3-.9-.3-1.5V43h-1.8v-2.3zm9.1-5h3.4v3h-3.4v-3zm0 5h3.4v12.8h-3.4V40.7zm8.9 1.8c.5-.7 1-1.2 1.6-1.6.6-.3 1.4-.5 2.2-.5.7 0 1.3.1 1.8.4.5.2 1 .6 1.4 1s.7.9.9 1.5c.2.6.3 1.2.3 1.9v8.4h-3.4v-7.9c0-.7-.2-1.3-.6-1.7-.4-.4-.9-.6-1.6-.6-.8 0-1.4.3-1.9.8s-.7 1.3-.7 2.1v7.3H146V40.7h3.3v1.8zm16.1 15.4c-1.8 0-3.2-.4-4.2-1.1-1-.7-1.6-1.7-1.8-2.9h3.4c.1.4.4.7.8 1 .4.3 1 .4 1.8.4 1.9 0 2.8-.9 2.8-2.7v-1.4h-.1c-.4.4-.8.8-1.3 1.1-.5.3-1.2.4-2 .4-.7 0-1.4-.1-2.1-.4s-1.3-.7-1.8-1.2-1-1.2-1.3-1.9c-.3-.8-.5-1.6-.5-2.6 0-.9.1-1.8.4-2.6.3-.8.7-1.4 1.1-2 .5-.6 1.1-1 1.8-1.3s1.4-.4 2.2-.4c.8 0 1.5.1 2.1.5.6.3 1.1.7 1.5 1.2v-1.4h3.3v11.9c0 .9-.1 1.7-.4 2.3-.3.6-.6 1.2-1.1 1.6-.5.5-1.2.9-2 1.1-.8.3-1.7.4-2.6.4zm-.1-7.8c.5 0 1-.1 1.4-.3.4-.2.7-.4.9-.8.2-.3.4-.7.5-1.1.1-.4.2-.9.2-1.3 0-.5-.1-.9-.2-1.3s-.3-.8-.6-1.1-.6-.6-1-.8c-.4-.2-.8-.3-1.3-.3-.9 0-1.6.3-2.1.9-.5.6-.8 1.5-.8 2.6s.3 2 .8 2.5c.6.7 1.3 1 2.2 1zm8.4-9.4h3.3v1.7h.1c.3-.6.8-1.1 1.5-1.5.6-.4 1.4-.6 2.3-.6.8 0 1.5.2 2.2.6.6.4 1.1 1 1.4 1.6.4-.7 1-1.2 1.6-1.7.7-.4 1.4-.6 2.2-.6 1.4 0 2.4.4 3.1 1.2.7.8 1.1 1.9 1.1 3.3v8.6h-3.4v-8c0-.7-.2-1.3-.5-1.7-.3-.4-.8-.5-1.5-.5s-1.3.3-1.7.8c-.4.5-.6 1.2-.6 2v7.5h-3.4v-8c0-.7-.2-1.3-.5-1.7-.3-.4-.8-.5-1.5-.5s-1.3.3-1.7.8-.6 1.2-.6 2v7.5h-3.4V40.7zm28.9 12.9c-.1-.1-.2-.3-.2-.6s-.1-.5-.2-.8c-.2.2-.4.5-.6.7s-.5.4-.8.5c-.3.2-.6.3-1 .4-.4.1-.9.1-1.4.1-1.3 0-2.4-.3-3.2-1-.8-.7-1.2-1.6-1.2-2.9 0-.7.1-1.3.4-1.8.3-.5.6-.9 1.1-1.2s1-.6 1.6-.7c.6-.2 1.3-.3 2-.4 1.1-.2 1.8-.3 2.3-.5.5-.2.8-.5.8-1s-.2-.8-.5-1.1-.9-.4-1.6-.4c-.8 0-1.4.1-1.8.4-.4.3-.6.7-.7 1.4h-3c0-.6.1-1.1.4-1.6.2-.5.6-1 1-1.3.5-.4 1-.7 1.7-.9s1.5-.4 2.4-.4c1.9 0 3.3.4 4.1 1.2.8.8 1.3 2 1.3 3.5v6.5c0 1 .1 1.6.5 1.8v.1h-3.4zm-3.4-2.1c.5 0 .9-.1 1.3-.2s.7-.3 1-.6c.3-.2.5-.5.6-.8s.2-.6.2-.9v-1.9c-.3.2-.7.3-1.1.4-.4.1-.9.2-1.3.3-.9.2-1.6.4-2 .7s-.7.7-.7 1.3c0 .6.2 1 .6 1.3.4.3.8.4 1.4.4zm11.7-9c.5-.7 1-1.2 1.6-1.6.6-.3 1.4-.5 2.2-.5.7 0 1.3.1 1.8.4.5.2 1 .6 1.4 1 .4.4.7.9.9 1.5s.3 1.2.3 1.9v8.4h-3.4v-7.9c0-.7-.2-1.3-.6-1.7-.4-.4-.9-.6-1.7-.6-.8 0-1.4.3-1.9.8s-.7 1.3-.7 2.1v7.3h-3.4V40.7h3.3v1.8z"/></g><g class="st0"><path class="st2" d="M120.6 28.7c-.4 0-.7-.1-1.1-.2-.3-.2-.6-.4-.8-.6-.2-.3-.4-.6-.5-1-.1-.4-.2-.9-.2-1.4 0-.5.1-.9.2-1.3s.3-.7.5-1c.2-.3.5-.5.8-.7s.7-.2 1.1-.2c.4 0 .8.1 1.1.3.3.2.5.4.7.6V20h1.6v8.6h-1.6v-.8c-.2.3-.4.5-.7.7s-.7.2-1.1.2zm.3-1.4c.5 0 .9-.2 1.1-.5s.4-.8.4-1.4c0-.3 0-.6-.1-.8s-.1-.4-.2-.6-.3-.3-.4-.4c-.2-.1-.4-.1-.7-.1-.4 0-.8.2-1 .5-.2.4-.3.8-.3 1.4 0 .6.1 1.1.3 1.4s.5.5.9.5zm7 1.4c-.5 0-1-.1-1.4-.3-.4-.2-.7-.4-1-.7s-.5-.6-.6-1-.2-.8-.2-1.3.1-.9.2-1.3.4-.7.6-1c.3-.3.6-.5 1-.7.4-.2.8-.3 1.2-.3.5 0 .9.1 1.3.3.4.2.7.4.9.8s.5.7.6 1.2.2 1 .2 1.5h-4.5c.1.5.2.9.5 1.1.3.3.6.4 1.1.4.3 0 .6-.1.8-.2.2-.1.3-.3.4-.6h1.6c-.1.3-.2.5-.3.8-.1.2-.3.5-.6.6-.2.2-.5.3-.8.4-.2.2-.6.3-1 .3zm-.1-5.3c-.4 0-.8.1-1 .4s-.4.6-.4 1h2.7c0-.4-.2-.7-.4-1-.2-.2-.5-.4-.9-.4z"/></g><circle id="SVGID_19_" class="st2" cx="30.1" cy="34.3" r="26"/><circle id="XMLID_28_" class="st3" cx="16.9" cy="24.9" r="2.7"/><path class="st4" d="M43.6 16.9c0-2.9-1-5.3-2.6-7.5H19.1c-1.4 2.1-2.3 4.7-2.3 7.5v8.4c0 .1.3 2.2.3 2.3 0 .2.2.7.2.9v.6c0 .1.2.4.2.5 0 .4.1.4.1.7 0 .3-.1 0 0 .2l.1.3c0 .2.1.3.1.4 0 .2-.3.2-.2.4.1.2.1.4.2.5.1.2.1.3.2.5 0 .1.1.2.1.4 0 .1.1.2.1.3.3.6.6 1.3.9 1.8.1.2.2.3.3.5.1.1.2.3.2.4.3.5.6.9.9 1.4.1.1.2.2.3.4.2.3.5.6.8.9l.3.3c.2.3.5.5.8.8l.3.3.3.3 1.2.9c.1.1.3.2.4.3.3.2.5.3.8.5.5.3 1 .6 1.5.8.6.3 1.2.5 1.7.6.1 0 .2 0 .3.1.1 0 .2 0 .4.1h2c.1 0 .2 0 .3-.1.1 0 .2-.1.3-.1.2 0 .3-.1.5-.2.1 0 .3-.1.4-.1h.1c.1 0 .2-.1.3-.1.1 0 .2-.1.3-.1.1 0 .2-.1.2-.1.3-.2.7-.4 1-.6.1-.1.2-.1.3-.2.2-.1.3-.2.5-.3.1-.1.2-.1.3-.2.2-.2.5-.4.7-.6.1-.1.2-.2.3-.2l.3-.3.2-.2c.3-.3.7-.6 1-1 .1-.1.2-.2.3-.4l.4-.4.3-.3c.6-.8 1.2-1.6 1.7-2.4.1-.1.1-.2.2-.3.1-.2.3-.5.4-.7.1-.1.1-.2.2-.4.1-.1.1-.2.2-.4v-.1c0-.1.1-.2.1-.3.1-.1.1-.3.2-.4 0-.1.1-.2.1-.3v-.1c0-.1.1-.2.1-.3 0-.1.1-.2.1-.4.1-.3.2-.5.2-.8 0-.1 0-.1.1-.2 0-.1-.4-.1-.4-.2s-.2-.2-.2-.4l.4-.3c0-.1.1-.1.1-.2.1-.4.1-.6.1-1.1 0-.1.1-.4.1-.5v-.9c0-.1.3-.4.3-.5V16.9z"/><circle id="XMLID_27_" transform="rotate(-22.765 43.55 24.958)" class="st4" cx="43.5" cy="25" r="2.7"/><path class="st3" d="M40.5 12.2c-2.4-3.1-5.8-4.3-10-4.3v36.9c7.8-.9 13-11.1 13.1-18.3 0-.3.1-.7.1-1-.3-4.9.4-9.9-3.2-13.3z"/><path class="st5" d="M18.4 17.9c-.1.2-.3.5-.4.8 0 .1-.1.2-.1.3-.7 1.6-1 2.9-1 4.1v2.3-7.8c.4.1.9.2 1.5.3z"/><path class="st4" d="M44.2 56.1c-.5-.7-1.1-1.4-1.8-2-.6-.6-1.2-1.1-1.9-1.6-.3-.2-.5-.4-.8-.6-.1-.1-.3-.2-.4-.3-.3-.2-.6-.3-.9-.5h-.1c-.1-.1-.3-.2-.4-.2-.1-.1-.2-.2-.4-.2l-.1-.1c-.1-.1-.2-.2-.4-.3-.1-.1-.2-.2-.4-.3-.8-.6-1.5-1.4-2.1-2.3-.6-.8-1-1.7-1.4-2.7-.4-1.2-.6-2.4-.6-3.7h-5.1c0 1.3-.2 2.6-.6 3.7-.3 1-.8 1.9-1.4 2.7-.1.1-.2.2-.2.3-.1.1-.2.2-.2.3-.2.2-.3.4-.5.6l-.3.3c-.3.3-.6.5-.9.8-.1.1-.3.2-.4.3-.3.2-.5.4-.8.5-.1.1-.2.2-.4.2-.4.2-.7.4-1.1.6-.3.2-.7.5-1 .7-.7.5-1.3 1-1.9 1.6-.1.1-.2.2-.3.4-.1.1-.2.2-.3.4-.2.2-.4.5-.6.8-.1.2-.3.4-.4.6 4.1 2.6 8.9 4.2 14.1 4.2 5.1-.1 9.9-1.6 14-4.2z"/><path class="st6" d="M39.5 34.7c-.6.4-1.4.8-1.8.3-.2-.3-.5-1.6-.8-2.5-.5-1.4-3.8-3.2-4.7-2.5-1.1.9-2.1 1-3.6 0-.7-.4-3.6 1.3-4.3 2.4-.5.9-.5 2.2-1.1 2.6-.7.5-1.7-.1-2.4-.8-2.2-2.2-3.9-8.7-3.9-9 .3 7.4.6 9 2.3 13 2.7 6.5 7.6 7.4 11.1 7.4s8.2-1.1 10.9-7.4c1.6-3.6 2.2-5.6 2.5-12.8 0 .4-.2.7-.2.7-.2.1-1.6 7.3-4 8.6z"/><g id="XMLID_21_"><g id="XMLID_23_"><path id="XMLID_26_" class="st1" d="M26.9 24c0 1.1-.9 2.1-2.1 2.1-1.1 0-2.1-.9-2.1-2.1 0-1.1.9-2.1 2.1-2.1 1.2 0 2.1 1 2.1 2.1z"/><path id="XMLID_25_" class="st7" d="M26.3 24c0 .8-.7 1.5-1.5 1.5s-1.5-.7-1.5-1.5.7-1.5 1.5-1.5c.9 0 1.5.7 1.5 1.5z"/><path id="XMLID_24_" class="st1" d="M26.3 23.2c0 .3-.3.6-.6.6s-.6-.3-.6-.6.3-.6.6-.6.6.3.6.6z"/></g><path id="XMLID_22_" class="st5" d="M26.4 21.3c-1-.6-2.2-.6-3.2 0-.2.1-.4-.1-.5-.4-.1-.4 0-.8.3-.9 1.2-.7 2.5-.7 3.6 0 .2.1.3.6.3.9-.1.3-.3.5-.5.4z"/></g><g id="XMLID_5_"><g id="XMLID_17_"><circle id="XMLID_20_" class="st1" cx="35.7" cy="24" r="2.1"/><circle id="XMLID_19_" class="st7" cx="35.7" cy="24" r="1.5"/><path id="XMLID_18_" class="st1" d="M37.1 23.2c0 .3-.3.6-.6.6s-.6-.3-.6-.6.3-.6.6-.6c.4 0 .6.3.6.6z"/></g><path id="XMLID_12_" class="st5" d="M37.3 21.3c-1-.7-2.2-.7-3.2 0-.2.1-.4-.1-.5-.5-.1-.4 0-.9.3-1.1 1.2-.7 2.5-.7 3.6 0 .2.1.3.6.3 1.1-.1.4-.3.6-.5.5z"/></g><linearGradient id="SVGID_1_" gradientUnits="userSpaceOnUse" x1="23.108" y1="28.341" x2="23.168" y2="21.534"><stop offset="0" stop-color="#fff"/><stop offset="1" stop-color="#fff" stop-opacity="0"/></linearGradient><path d="M27.5 26.6c-.5 1.1-1.7 2.6-3.4 2.6-5.2.3-5.4-1.2-5.7-2.3-.3-1.1-.4-2.1-.3-3.3.1-1.1.4-1.8.9-2.1.2-.1.5-.3 1.1-.4.6-.1 1.4-.1 2.8-.1.8 0 1.6.1 2.3.2 1.8.3 3.1.9 3.1 1.5 0 .4-.1 2.3-.8 3.9z" opacity=".5" fill="url(#SVGID_1_)"/><linearGradient id="SVGID_3_" gradientUnits="userSpaceOnUse" x1="37.114" y1="29.293" x2="37.114" y2="21.212"><stop offset="0" stop-color="#fff"/><stop offset="1" stop-color="#fff" stop-opacity="0"/></linearGradient><path d="M41.9 26.9c-.3 1.1-.6 2.6-5.7 2.3-1.7-.1-2.9-1.5-3.4-2.6-.7-1.6-.8-3.5-.8-3.9 0-.8 2.3-1.7 5.4-1.7 3 0 3.5.2 3.9.5.5.3.8 1 .9 2.1.1 1.2 0 2.2-.3 3.3z" opacity=".5" fill="url(#SVGID_3_)"/><path d="M46.6 54.3c-1.7-2.8-4.6-4.3-9.2-4.4-3.1-.1-5 2.2-6.7 2.2-4.1-.1-5.4-2.3-8.4-1.8-4.1.7-6.9 1.9-8.7 4.1 4.5 3.7 10.2 5.9 16.5 5.9 6.3-.1 12-2.3 16.5-6z" fill="#c7d4e2"/><path class="st11" d="M31.5 60.2l-.5-7c-.1.3-1.3.3-1.4 0l-.5 7h2.4z"/><path d="M20.3 50.3l-1.5.4v7c.5.2 1 .5 1.5.7v-8.1zm22.3.3l-1.5-.5-.1 7.6c.5-.2 1-.5 1.5-.8l.1-6.3z" fill="#435363"/><path class="st11" d="M26.2 50.5l4.2 4 4.2-4z"/><path class="st13" d="M30.3 50.4l-1.8 3-1.7 2.8-4.6-6.2c.1-.1.3-.2.4-.3.9-.7 1.7-1.5 2.4-2.5l5.3 3.2z"/><path class="st13" d="M38.3 50l-4.6 6.2-1.7-2.8-1.8-3 5.2-3.3c.7.9 1.5 1.8 2.4 2.5.2.1.4.3.5.4z"/><path class="st6" d="M43.6 25.6l-.1-2.3-.2-3.3s-.4.8-.4-.1.5 5 0 8.5c-.3 3.3.7-2.8.7-2.8zm-26.8.1v-3l.2-.3s-.3 3.3.5 5.8c.6 1.8-.1 1.7-.1 1.7s-.4-.6-.4-.7c.1-.1-.1-2.6-.2-3.5z"/><path class="st5" d="M38.5 5.8C33.1 1 27.4 3.6 22.1 7c-1.4.9-2.7 1-3.8.8-1.7-.4-3.2-1.2-3.7-1.8-.3 2.1 2.3 5.6 2.3 5.6-3.4.3-5.6-3.8-5.6-3.8-.5 3.6 2.5 7.6 5.5 10.1v.2c.2.1.4.2.6.2l.1.1c2.7 1.1 5.4 1.4 7.8 1.1 5-.4 10.4-3.3 13.5-7.3 1.7-1.7 1.6-4.7-.3-6.4z"/><linearGradient id="SVGID_4_" gradientUnits="userSpaceOnUse" x1="11.296" y1="12.881" x2="29.705" y2="12.881"><stop offset="0" stop-color="#543e36"/><stop offset="1" stop-color="#736357"/></linearGradient><path d="M11.3 8.1s4 13.4 18.4 8.6c0 0-14.2.8-18.4-8.6z" fill="url(#SVGID_4_)"/><linearGradient id="SVGID_5_" gradientUnits="userSpaceOnUse" x1="14.635" y1="9.922" x2="31.699" y2="9.922"><stop offset="0" stop-color="#543e36"/><stop offset="1" stop-color="#736357"/></linearGradient><path d="M14.6 6s4.5 11.7 17.1 6.6c0 0-12.7 1.6-17.1-6.6z" fill="url(#SVGID_5_)"/><path class="st5" d="M43.6 18v-1.2c0-2.6-.2-5.1-1.3-7-.4-.7-1.5-1.8-2.6-1.9-.3-.3-.5-.6-.7-.9-.1-.2-.2-.4-.3-.5-.9-.7-1.9-1.4-3-1.9.2 3 1.1 5.4 2.5 8l.1.1c.6 2.8 2.1 3.9 3.7 5.3.3.2.5.5.7.9v.1c.7 1.5 1 2.9 1 4.3v-5.2l-.1-.1z"/><path class="st11" d="M43.7 20.9c0-.1 0-.1-.1-.1-.5-.1-3-.4-5.6-.4-3 0-6.8.9-7.5.9h-.6c-.3 0-1.3-.2-2.6-.4-1.5-.2-3.3-.5-4.9-.5-1.9 0-3.8.2-4.8.3-.4 0-.7.1-.8.1-.1 0-.1.1-.1.1v1.6c0 .1 0 .1.1.1l.2.1c.3.1.2 4.9 1.7 6.1.9.7 1.6 1.1 4.8 1.1 1.9 0 3-.5 4.1-2 .8-1.1 1.5-3.6 1.5-3.6.2-1 1-1.1 1.1-1.1 0 0 .9 0 1.1 1.1 0 0 .7 2.5 1.5 3.6 1.1 1.5 2.3 2 4.1 2 3.2 0 4-.4 4.8-1.1 1.4-1.2 1.4-6 1.7-6.1l.2-.1c.1 0 .1-.1.1-.1v-1.6zm-16.2 5.7c-.5 1.1-1.7 2.6-3.4 2.6-5.2.3-5.4-1.2-5.7-2.3-.3-1.1-.4-2.1-.3-3.3.1-1.1.4-1.8.9-2.1.2-.1.5-.3 1.1-.4.6-.1 1.4-.1 2.8-.1.8 0 1.6.1 2.3.2 1.8.3 3.1.9 3.1 1.5 0 .4-.1 2.3-.8 3.9zm14.4.3c-.3 1.1-.6 2.6-5.7 2.3-1.7-.1-2.9-1.5-3.4-2.6-.7-1.6-.8-3.5-.8-3.9 0-.8 2.3-1.7 5.4-1.7 3 0 3.5.2 3.9.5.5.3.8 1 .9 2.1.1 1.2 0 2.2-.3 3.3z"/><path class="st4" d="M26.6 34.2c-.5-.6 0-1.5.7-1.6 3.3-.3 10.4-.7 6.8 2.4-3.6 3.3-6.2 1-7.5-.8z"/><path class="st3" d="M30.3 32.4v4.3c1.1.1 2.4-.3 3.8-1.6 2.7-2.4-.6-2.8-3.8-2.7z"/><path class="st6" d="M36.2 32.8L29.1 31s-4 1-3.8 1.7c.2.7 1 1.6 1 1.6.1-1 7-1.3 8.7-.2s1.2-1.3 1.2-1.3z"/></svg>